<svg xmlns="http://www.w3.org/2000/svg" version="1.1" xmlns:xlink="http://www.w3.org/1999/xlink" xmlns:svgjs="http://svgjs.com/svgjs" viewBox="0 0 400 400" width="400" height="400"><g transform="matrix(6.666666666666667,0,0,6.666666666666667,0,0)"><path d="M43.045,11.256a2.754,2.754,0,0,0-1.124-3.723L29.868,1.064a2.756,2.756,0,0,0-3.723,1.124l-9.19,17.125a2.748,2.748,0,0,0,1.124,3.723L30.132,29.5a2.764,2.764,0,0,0,3.723-1.123Zm-10.194,4.82a36.742,36.742,0,0,0-4.376,3.911,1.4,1.4,0,0,1-2.357-.387c-.378-.862-1.659-3.321-2.132-4.224a.5.5,0,0,1,.175-.654c1.285-.812,3.02,1.412,3.554,2.167a40.335,40.335,0,0,1,3.523-3.061c3.214-2.44,5.5-2.468,6.706-2.192a.5.5,0,0,1,.159.908C36.725,13.432,33.98,15.219,32.851,16.076Z" fill="#7c7c7c"></path><path d="M37.97 26.796L51.443 32.438 30 41.417 8.557 32.438 20.317 27.513" fill="none" stroke="#7c7c7c" stroke-linecap="round" stroke-linejoin="round" stroke-width="1.5"></path><path d="M34.553 34.344L25.447 30.531" fill="none" stroke="#7c7c7c" stroke-linecap="round" stroke-linejoin="round" stroke-width="1.5"></path><path d="M8.557,32.438V48.292a2.114,2.114,0,0,0,1.3,1.95l19.329,8.094a2.114,2.114,0,0,0,1.634,0l19.329-8.094a2.114,2.114,0,0,0,1.3-1.95V32.438" fill="none" stroke="#7c7c7c" stroke-linecap="round" stroke-linejoin="round" stroke-width="1.5"></path><path d="M30 41.417L30 58.5" fill="none" stroke="#7c7c7c" stroke-linecap="round" stroke-linejoin="round" stroke-width="1.5"></path></g></svg>